<?xml version="1.0" encoding="utf-8"?>
<!-- Generator: Adobe Illustrator 22.1.0, SVG Export Plug-In . SVG Version: 6.00 Build 0)  -->
<svg version="1.1" id="Laag_1" xmlns="http://www.w3.org/2000/svg" xmlns:xlink="http://www.w3.org/1999/xlink" x="0px" y="0px"
	 viewBox="0 0 400 162" style="enable-background:new 0 0 400 162;" xml:space="preserve">
<style type="text/css">
	.st0{fill:#FFFFFF;}
</style>
<g>
	<path class="st0" d="M37,144.3c-6.9-5.1-7.8-13.9-7.8-20V45.2c0-7-3-10-9.9-10H4.6C2.8,35.2,2,36,2,37.9v75.7
		c0,15.9,3.4,32.1,29,32.1h6V144.3z"/>
	<path class="st0" d="M301,144c-12.9-9.4-15.6-20.7-15.6-35.8V11.8c0-7-2.9-10-9.9-10h-14.7c-1.9,0-2.7,0.8-2.7,2.7l0,101.6
		c0,19.5,4.2,39.4,35.4,39.4h7.3V144z"/>
	<path class="st0" d="M238.6,86.2c2.2-43.4-18.2-52.8-45.5-53.2c-13-0.2-26.5,2.3-33.9,5.8c-6.1,2.9-8,6.6-6,12.7l3.1,9.8
		c0.4,1.2,1.2,2,3.1,1.3c7.8-2.7,56.1-20.8,52.7,14.8c-49.5-0.9-63.1,13.5-63.4,33c0,2.7,0.4,5.2,0.9,7.6h1.5
		c10.3-15.3,28.5-16.8,43.4-17.8C210.4,99.6,226.6,97.6,238.6,86.2z"/>
	<path class="st0" d="M203.9,119c-20.7,1.6-55.3,6.8-55.6,41.2h1c9.7-13.8,26.7-15.6,40.4-16.3c19.6-0.8,48.2-3,48.6-34.5l-1.4,0
		C230.8,114.5,222.4,117.5,203.9,119z"/>
	<path class="st0" d="M370.3,108.1c0,11.4-5.8,16.6-18.1,16.6c-11.5,0-18.9-4.5-18.9-13.8c0-12.5,13-12.2,27-13.2
		c4.6-0.3,7.2-0.6,10-1.9V108.1z M361.2,77.1c-21.1,2-54.1,3.9-54.1,33.3c0,22.1,17.9,35.7,45.8,35.7c29.7,0,43.5-15.2,43.5-38.1
		v-41H395C388.4,72.5,380.1,75.3,361.2,77.1z"/>
	<path class="st0" d="M87.7,146.1c26.2,0,44.3-13.6,44.3-36c0-21.2-15.7-27.1-34.6-30.7c-13.3-2.8-21.1-2.6-21.3-10.7
		c-0.2-6.1,5.1-11.3,21.3-11.3c1.7,0,10.7-0.7,25,5.7c1.6,0.7,3.1,1.6,4.2-1l3.7-9.8c2.4-7-0.2-10.5-5.4-13
		c-8.5-4.3-20.4-5.4-28.4-5.4C66.5,33.7,49,48.4,49,70.3c0,21.2,16.2,26.2,34.7,30c14.2,2.6,21.4,2.8,21.4,10.9
		c0,7.4-7.3,11.3-19.6,11.3c-13.8,0-27.9-5.2-33.7-10.5l-1.2,0C49,142,71.2,145.7,87.7,146.1z"/>
	<path class="st0" d="M309.1,75.2c9.4-14,29.4-16.6,44.1-17.3c37.1-1.7,45.8-9.8,44.6-42h-1.4c-9.1,13.7-25.5,16.1-39.7,16.9
		c-39.6,2.5-53,17-49.2,42.4H309.1z"/>
</g>
</svg>
